<svg id="visual" viewBox="0 0 900 600" width="900" height="600" xmlns="http://www.w3.org/2000/svg" xmlns:xlink="http://www.w3.org/1999/xlink" version="1.1"><rect x="0" y="0" width="900" height="600" fill="#0C1220"></rect><defs><linearGradient id="grad1_0" x1="33.3%" y1="0%" x2="100%" y2="100%"><stop offset="20%" stop-color="#0c1220" stop-opacity="1"></stop><stop offset="80%" stop-color="#0c1220" stop-opacity="1"></stop></linearGradient></defs><defs><linearGradient id="grad2_0" x1="0%" y1="0%" x2="66.7%" y2="100%"><stop offset="20%" stop-color="#0c1220" stop-opacity="1"></stop><stop offset="80%" stop-color="#0c1220" stop-opacity="1"></stop></linearGradient></defs><g transform="translate(900, 0)"><path d="M0 486.7C-58.7 468.4 -117.4 450.1 -177.9 429.6C-238.5 409.1 -300.9 386.5 -344.2 344.2C-387.5 301.8 -411.8 239.8 -432.4 179.1C-453 118.4 -469.9 59.2 -486.7 0L0 0Z" fill="#6EE7B7"></path></g><g transform="translate(0, 600)"><path d="M0 -486.7C50.5 -450.7 101 -414.6 164.6 -397.3C228.1 -380 304.7 -381.4 344.2 -344.2C383.7 -307 386.2 -231 403.7 -167.2C421.3 -103.4 454 -51.7 486.7 0L0 0Z" fill="#6EE7B7"></path></g></svg>