<svg id="visual" viewBox="0 0 900 600" width="900" height="600" xmlns="http://www.w3.org/2000/svg" xmlns:xlink="http://www.w3.org/1999/xlink" version="1.1"><rect x="0" y="0" width="900" height="600" fill="#001220"></rect><defs><linearGradient id="grad1_0" x1="33.3%" y1="0%" x2="100%" y2="100%"><stop offset="20%" stop-color="#001220" stop-opacity="1"></stop><stop offset="80%" stop-color="#001220" stop-opacity="1"></stop></linearGradient></defs><defs><linearGradient id="grad2_0" x1="0%" y1="0%" x2="66.7%" y2="100%"><stop offset="20%" stop-color="#001220" stop-opacity="1"></stop><stop offset="80%" stop-color="#001220" stop-opacity="1"></stop></linearGradient></defs><g transform="translate(900, 0)"><path d="M0 486.7C-85.7 474.3 -171.3 461.9 -243.4 421.5C-315.4 381.2 -373.9 312.9 -412.2 238C-450.5 163.1 -468.6 81.5 -486.7 0L0 0Z" fill="#7f5af0"></path></g><g transform="translate(0, 600)"><path d="M0 -486.7C94.2 -479.3 188.4 -471.8 243.4 -421.5C298.4 -371.3 314.1 -278.4 348.1 -201C382.2 -123.6 434.5 -61.8 486.7 0L0 0Z" fill="#7f5af0"></path></g></svg>